<svg xmlns="http://www.w3.org/2000/svg" xmlns:xlink="http://www.w3.org/1999/xlink" width="31.61mm" height="31.61mm" viewBox="0 0 89.6 89.6">
  <defs>
    <style>
      .a {
        fill: url(#a);
      }

      .b {
        mask: url(#b);
        filter: url(#o);
      }

      .c, .i, .j {
        mix-blend-mode: multiply;
      }

      .c {
        fill: url(#d);
      }

      .d {
        isolation: isolate;
      }

      .e {
        fill: url(#e);
      }

      .f {
        fill: url(#f);
      }

      .g {
        fill: url(#g);
      }

      .h {
        fill: url(#h);
      }

      .i {
        fill: url(#i);
      }

      .j {
        fill: url(#j);
      }

      .k {
        fill: url(#l);
      }

      .l {
        mask: url(#m);
      }

      .m {
        mask: url(#n);
      }

      .n {
        filter: url(#c);
      }
    </style>
    <linearGradient id="a" x1="13.12" y1="13.12" x2="38.43" y2="38.43" gradientUnits="userSpaceOnUse">
      <stop offset="0" stop-color="#fff"/>
      <stop offset="1" stop-color="#fff"/>
    </linearGradient>
    <filter id="c" x="0" y="-8592" width="68.07" height="32766" filterUnits="userSpaceOnUse" color-interpolation-filters="sRGB">
      <feFlood flood-color="#fff" result="bg"/>
      <feBlend in="SourceGraphic" in2="bg"/>
    </filter>
    <mask id="b" x="0" y="-8592" width="68.07" height="32766" maskUnits="userSpaceOnUse">
      <g class="n"/>
    </mask>
    <linearGradient id="d" x1="13.12" y1="13.12" x2="38.43" y2="38.43" gradientUnits="userSpaceOnUse">
      <stop offset="0" stop-color="#1a1a1a"/>
      <stop offset="0.02" stop-color="#1b1b1b"/>
      <stop offset="0.59" stop-color="#2d2d2d"/>
      <stop offset="1" stop-color="#333"/>
    </linearGradient>
    <linearGradient id="e" x1="13.12" y1="13.12" x2="76.48" y2="76.48" gradientUnits="userSpaceOnUse">
      <stop offset="0" stop-color="#babbba"/>
      <stop offset="0.19" stop-color="#efecef"/>
      <stop offset="0.31" stop-color="#fff"/>
      <stop offset="0.47" stop-color="#f1edf1"/>
      <stop offset="0.63" stop-color="#babbba"/>
      <stop offset="0.84" stop-color="#9d9b9d"/>
      <stop offset="1" stop-color="#a4a3a4"/>
    </linearGradient>
    <linearGradient id="f" x1="14.75" y1="14.75" x2="74.85" y2="74.85" gradientUnits="userSpaceOnUse">
      <stop offset="0" stop-color="#a4a3a4"/>
      <stop offset="0.16" stop-color="#9d9b9d"/>
      <stop offset="0.37" stop-color="#babbba"/>
      <stop offset="0.53" stop-color="#f1edf1"/>
      <stop offset="0.69" stop-color="#fff"/>
      <stop offset="0.81" stop-color="#efecef"/>
      <stop offset="1" stop-color="#babbba"/>
    </linearGradient>
    <linearGradient id="g" x1="20.04" y1="20.04" x2="69.56" y2="69.56" xlink:href="#e"/>
    <linearGradient id="h" x1="21.76" y1="21.76" x2="67.84" y2="67.84" xlink:href="#f"/>
    <linearGradient id="i" x1="27.62" y1="31.2" x2="61.4" y2="64.97" xlink:href="#e"/>
    <linearGradient id="j" x1="27.62" y1="31.2" x2="61.4" y2="64.97" xlink:href="#f"/>
    <linearGradient id="l" x1="44.8" y1="64.37" x2="44.8" y2="25.23" gradientUnits="userSpaceOnUse">
      <stop offset="0.5" stop-color="#f1edf1"/>
      <stop offset="1" stop-color="#a4a3a4"/>
    </linearGradient>
    <mask id="m" x="0" y="0" width="68.07" height="68.07" maskUnits="userSpaceOnUse">
      <path class="a" d="M6.51,68.06A44.81,44.81,0,0,1,68.06,6.51C68.46,9.16,9.16,68.46,6.51,68.06Z"/>
    </mask>
    <filter id="o" x="0" y="0" width="68.07" height="68.07" filterUnits="userSpaceOnUse" color-interpolation-filters="sRGB">
      <feFlood flood-color="#fff" result="bg"/>
      <feBlend in="SourceGraphic" in2="bg"/>
    </filter>
    <mask id="n" x="0" y="0" width="68.07" height="68.07" maskUnits="userSpaceOnUse">
      <g class="b">
        <path class="c" d="M6.51,68.06A44.81,44.81,0,0,1,68.06,6.51C68.46,9.16,9.16,68.46,6.51,68.06Z"/>
      </g>
    </mask>
  </defs>
  <title>silver</title>
  <g class="d">
    <g>
      <g>
        <circle class="e" cx="44.8" cy="44.8" r="44.8"/>
        <circle class="f" cx="44.8" cy="44.8" r="42.5"/>
        <circle class="g" cx="44.8" cy="44.8" r="35.02"/>
        <circle class="h" cx="44.8" cy="44.8" r="32.58"/>
        <path class="i" d="M58,54.87h-8.1c1.28-1.28,2.78-2.83,4.32-4.53,3.47-3.84,5.54-8.49,5.54-12.43,0-10.14-7.62-14.67-15.16-14.67-9.23,0-13.86,4.85-14.05,5.05l-.93,1,.6,1.23,3.39,7,1.14,2.35,2-1.71s3.36-2.85,6.65-2.85c3,0,3.6,1.66,3.6,3a7.09,7.09,0,0,1-2.52,5.22l-.11.1,0,0,0,0c-2.39,2.34-12.68,12.5-12.78,12.6l-.59.59v9.46H60V54.87Z"/>
        <path class="j" d="M58,54.87h-8.1c1.28-1.28,2.78-2.83,4.32-4.53,3.47-3.84,5.54-8.49,5.54-12.43,0-10.14-7.62-14.67-15.16-14.67-9.23,0-13.86,4.85-14.05,5.05l-.93,1,.6,1.23,3.39,7,1.14,2.35,2-1.71s3.36-2.85,6.65-2.85c3,0,3.6,1.66,3.6,3a7.09,7.09,0,0,1-2.52,5.22l-.11.1,0,0,0,0c-2.39,2.34-12.68,12.5-12.78,12.6l-.59.59v9.46H60V54.87Z"/>
        <path class="j" d="M58,54.87h-8.1c1.28-1.28,2.78-2.83,4.32-4.53,3.47-3.84,5.54-8.49,5.54-12.43,0-10.14-7.62-14.67-15.16-14.67-9.23,0-13.86,4.85-14.05,5.05l-.93,1,.6,1.23,3.39,7,1.14,2.35,2-1.71s3.36-2.85,6.65-2.85c3,0,3.6,1.66,3.6,3a7.09,7.09,0,0,1-2.52,5.22l-.11.1,0,0,0,0c-2.39,2.34-12.68,12.5-12.78,12.6l-.59.59v9.46H60V54.87Z"/>
        <path class="k" d="M35.19,36.67s3.85-3.34,8-3.34,5.6,2.61,5.6,5A9.11,9.11,0,0,1,45.6,45l-.11.11c-2.42,2.37-12.77,12.6-12.77,12.6v6.62H57.8v-7.5H44.72c.33-.3,4-3.63,7.81-7.87,2.88-3.19,5-7.35,5-11.09,0-9.35-7.09-12.67-13.17-12.67-8.46,0-12.59,4.42-12.59,4.42Z"/>
      </g>
      <g class="l">
        <g class="m">
          <path class="a" d="M6.51,68.06A44.81,44.81,0,0,1,68.06,6.51C68.46,9.16,9.16,68.46,6.51,68.06Z"/>
        </g>
      </g>
    </g>
  </g>
</svg>
